<svg width="37" height="37" viewBox="0 0 37 37" fill="none" xmlns="http://www.w3.org/2000/svg">
<path fill-rule="evenodd" clip-rule="evenodd" d="M18.5 37C8.28273 37 0 28.7173 0 18.5C0 8.28273 8.28273 0 18.5 0C28.7173 0 37 8.28273 37 18.5C37 28.7173 28.7173 37 18.5 37ZM22.1292 27.8405L22.4313 26.6446C22.2735 26.7155 21.589 27.0002 20.7465 27.0307C19.9041 27.0612 19.7508 26.9367 19.5156 26.7502C19.2775 26.5636 19.1599 26.2122 19.1599 25.6974C19.1599 25.4935 19.1957 25.1899 19.2686 24.7922C19.343 24.3945 20.8298 19.1063 20.87 18.6797C20.9102 18.2545 20.9311 17.9566 20.9311 17.7875C20.9311 16.9719 20.6348 16.3081 20.0469 15.7977C19.4561 15.2886 18.6167 15.0312 17.5287 15.0312C16.3307 15.0259 14.9813 15.3822 13.4804 16.0999L13.1813 17.2972C13.3986 17.2163 14.0256 16.9399 14.8691 16.9126C15.7125 16.8852 15.8663 17.008 16.0791 17.2032C16.289 17.3985 16.3946 17.7455 16.3946 18.2401C16.3946 18.5177 14.7336 24.8732 14.6875 25.1971C14.6428 25.521 14.6205 25.8391 14.6205 26.15C14.6205 26.9497 14.9226 27.6077 15.5298 28.1268C16.1371 28.646 16.9899 28.9062 18.0853 28.9062C19.6124 28.8655 20.9604 28.5103 22.1292 27.8405ZM21.7538 12.0451C22.205 11.596 22.4313 11.0511 22.4313 10.4117C22.4313 9.77507 22.205 9.22741 21.7538 8.77422C21.3038 8.31966 20.7592 8.09375 20.1239 8.09375C19.4898 8.09375 18.9427 8.31966 18.4876 8.77422C18.0364 9.22741 17.8063 9.77507 17.8063 10.4117C17.8063 11.0498 18.0351 11.596 18.4876 12.0451C18.9427 12.4942 19.4898 12.7188 20.1239 12.7188C20.7592 12.7188 21.3025 12.4942 21.7538 12.0451Z" fill="white"/>
</svg>
