<svg width="36" height="28" viewBox="0 0 36 28" fill="none" xmlns="http://www.w3.org/2000/svg">
<g clip-path="url(#clip0_352_124)">
<path d="M17.9998 0.955566C17.5481 0.955566 17.1816 1.37363 17.1816 1.8889V26.7778C17.1816 27.2931 17.5481 27.7111 17.9998 27.7111C18.4515 27.7111 18.818 27.2931 18.818 26.7778V1.8889C18.818 1.37363 18.4515 0.955566 17.9998 0.955566Z" fill="#000000"/>
<path d="M22.6362 8.11113V20.5556C22.6362 21.0708 23.0027 21.4889 23.4544 21.4889C23.9061 21.4889 24.2726 21.0708 24.2726 20.5556V8.11113C24.2726 7.59585 23.9061 7.1778 23.4544 7.1778C23.0027 7.1778 22.6362 7.59585 22.6362 8.11113Z" fill="#000000"/>
<path d="M28.909 24.6C29.3607 24.6 29.7272 24.1819 29.7272 23.6666V4.99998C29.7272 4.48471 29.3607 4.06665 28.909 4.06665C28.4573 4.06665 28.0908 4.48471 28.0908 4.99998V23.6666C28.0908 24.1819 28.4573 24.6 28.909 24.6Z" fill="#000000"/>
<path d="M35.1818 11.2222C35.1818 10.7069 34.8153 10.2889 34.3636 10.2889C33.9119 10.2889 33.5454 10.7069 33.5454 11.2222V17.4444C33.5454 17.9597 33.9119 18.3778 34.3636 18.3778C34.8153 18.3778 35.1818 17.9597 35.1818 17.4444V11.2222Z" fill="#000000"/>
<path d="M11.7271 8.11113V20.5556C11.7271 21.0708 12.0935 21.4889 12.5452 21.4889C12.9969 21.4889 13.3634 21.0708 13.3634 20.5556V8.11113C13.3634 7.59585 12.9969 7.1778 12.5452 7.1778C12.0935 7.1778 11.7271 7.59585 11.7271 8.11113Z" fill="#000000"/>
<path d="M7.09113 4.06665C6.63943 4.06665 6.27295 4.48471 6.27295 4.99998V23.6666C6.27295 24.1819 6.63943 24.6 7.09113 24.6C7.54283 24.6 7.90931 24.1819 7.90931 23.6666V4.99998C7.90931 4.48471 7.54283 4.06665 7.09113 4.06665Z" fill="#000000"/>
<path d="M0.818359 17.4444C0.818359 17.9597 1.18484 18.3778 1.63654 18.3778C2.08824 18.3778 2.45472 17.9597 2.45472 17.4444V11.2222C2.45472 10.7069 2.08824 10.2889 1.63654 10.2889C1.18484 10.2889 0.818359 10.7069 0.818359 11.2222V17.4444Z" fill="#000000"/>
</g>
<defs fill="#000000">
<clipPath id="clip0_352_124" fill="#000000">
<rect width="36" height="28" fill="#000000"/>
</clipPath>
</defs>
</svg>